<svg width="250" height="99" viewBox="0 0 250 99" fill="none" xmlns="http://www.w3.org/2000/svg">
<path d="M28.53 4.47794C30.895 4.47794 32.8041 4.81275 34.2574 5.48237C35.7106 6.15198 36.772 7.07093 37.4416 8.2392C38.1112 9.39322 38.446 10.704 38.446 12.1714C38.446 13.6674 38.154 14.9639 37.5698 16.0609C36.9857 17.1437 36.252 17.9914 35.3686 18.604C34.4996 19.2167 33.6234 19.5657 32.74 19.6512C33.6234 19.6797 34.5708 19.929 35.5823 20.3992C36.6081 20.8693 37.4772 21.6316 38.1896 22.6859C38.9162 23.7402 39.2795 25.1578 39.2795 26.9387C39.2795 28.5628 38.9518 30.0659 38.2964 31.4479C37.6411 32.8156 36.5298 33.9198 34.9626 34.7604C33.4096 35.5867 31.2654 35.9999 28.53 35.9999H14.7458V4.47794H28.53ZM22.9522 18.9673L20.1313 16.702H26.286C27.5683 16.702 28.4801 16.41 29.0215 15.8258C29.5771 15.2275 29.855 14.508 29.855 13.6674C29.855 13.0832 29.7339 12.5846 29.4917 12.1714C29.2637 11.7583 28.8862 11.4448 28.359 11.2311C27.8319 11.0032 27.1409 10.8892 26.286 10.8892H19.0627L22.9522 6.99969V18.9673ZM26.8417 29.5673C28.1239 29.5673 29.05 29.261 29.6199 28.6483C30.204 28.0214 30.4961 27.2735 30.4961 26.4044C30.4961 25.977 30.4249 25.5638 30.2824 25.1649C30.1399 24.766 29.9191 24.4098 29.6199 24.0963C29.3349 23.7829 28.9574 23.5336 28.4872 23.3484C28.0313 23.1631 27.4828 23.0705 26.8417 23.0705H20.1313L22.9522 20.8052V33.4568L19.0627 29.5673H26.8417ZM50.7583 36.4487C49.1626 36.4487 47.8519 36.1993 46.8261 35.7007C45.8145 35.202 45.0238 34.5182 44.4539 33.6491C43.884 32.78 43.4851 31.797 43.2571 30.6999C43.0292 29.5886 42.9152 28.4275 42.9152 27.2165C42.9152 26.7178 42.9152 26.1907 42.9152 25.635C42.9152 25.0651 42.9152 24.481 42.9152 23.8826V13.3041H51.5276V22.4294C51.5276 22.8996 51.5276 23.3412 51.5276 23.7544C51.5276 24.1676 51.5276 24.5451 51.5276 24.8871C51.5276 25.6991 51.5917 26.4471 51.72 27.131C51.8624 27.8006 52.1474 28.342 52.5748 28.7552C53.0022 29.1541 53.6433 29.3536 54.4982 29.3536C55.353 29.3536 56.0582 29.1256 56.6139 28.6697C57.1695 28.1995 57.5827 27.594 57.8534 26.8532C58.1383 26.0981 58.2808 25.3002 58.2808 24.4596L59.9477 26.383C59.9477 27.936 59.734 29.3322 59.3066 30.5717C58.8934 31.8112 58.2879 32.8726 57.4901 33.7559C56.7065 34.625 55.7448 35.2946 54.605 35.7648C53.4795 36.2207 52.1973 36.4487 50.7583 36.4487ZM58.2808 35.9999V13.3041H66.8932V35.9999H58.2808ZM83.5732 36.5555C82.5901 36.5555 81.5501 36.4772 80.453 36.3204C79.3702 36.178 78.3516 35.8717 77.397 35.4015C76.4424 34.9313 75.666 34.2261 75.0676 33.2858C74.4692 32.3312 74.17 31.0561 74.17 29.4604C74.17 29.1327 74.17 28.805 74.17 28.4774C74.17 28.1497 74.17 27.8291 74.17 27.5157V19.7153H69.1051V13.3041H69.212C70.3233 13.3041 71.2066 13.2542 71.862 13.1545C72.5316 13.0548 73.0302 12.8126 73.3579 12.4279C73.6856 12.0432 73.8993 11.4377 73.999 10.6114C74.113 9.78502 74.17 8.64525 74.17 7.19203V5.86704H82.8038V13.3041H89.0655V19.7153H82.8038V25.977C82.8038 26.1907 82.8038 26.4044 82.8038 26.6181C82.8038 26.8176 82.8038 27.0241 82.8038 27.2378C82.8038 28.0642 82.9035 28.7623 83.103 29.3322C83.3025 29.9021 83.8367 30.187 84.7058 30.187C85.2187 30.187 85.7031 30.1372 86.159 30.0374C86.6149 29.9377 86.9569 29.838 87.1848 29.7382V35.9571C86.8571 36.0996 86.3799 36.235 85.753 36.3632C85.1403 36.4914 84.4137 36.5555 83.5732 36.5555ZM101.432 2.59731V35.9999H92.9479V2.59731H101.432ZM105.24 35.9999V13.3041H113.767V35.9999H105.24ZM109.493 10.6327C108.225 10.6327 107.114 10.305 106.159 9.64967C105.219 8.9943 104.749 8.06111 104.749 6.8501C104.749 5.62484 105.219 4.69165 106.159 4.05052C107.114 3.39515 108.225 3.06746 109.493 3.06746C110.761 3.06746 111.865 3.39515 112.805 4.05052C113.76 4.69165 114.237 5.62484 114.237 6.8501C114.237 8.07536 113.76 9.01567 112.805 9.67104C111.865 10.3122 110.761 10.6327 109.493 10.6327ZM133.256 35.9999V27.1737C133.256 26.7178 133.256 26.2619 133.256 25.806C133.256 25.3501 133.256 24.9583 133.256 24.6306C133.256 23.847 133.184 23.099 133.042 22.3867C132.914 21.6743 132.607 21.0902 132.123 20.6343C131.653 20.1784 130.898 19.9504 129.858 19.9504C128.96 19.9504 128.233 20.1356 127.678 20.506C127.122 20.8765 126.716 21.4107 126.46 22.1089C126.203 22.807 126.075 23.6476 126.075 24.6306L124.408 22.9209C124.408 20.8409 124.828 19.0528 125.669 17.5569C126.51 16.0467 127.656 14.8855 129.11 14.0734C130.563 13.2471 132.201 12.8339 134.025 12.8339C135.963 12.8339 137.501 13.2328 138.641 14.0307C139.781 14.8143 140.6 15.9042 141.099 17.3004C141.612 18.6966 141.868 20.2923 141.868 22.0875C141.868 22.8711 141.868 23.7687 141.868 24.7802C141.868 25.7918 141.868 26.8603 141.868 27.9858V35.9999H133.256ZM117.463 35.9999V13.3041H126.075V35.9999H117.463ZM155.867 36.5555C154.527 36.5555 153.202 36.3917 151.892 36.064C150.581 35.7506 149.384 35.2733 148.301 34.6321C147.233 33.9768 146.371 33.1576 145.715 32.1745C145.074 31.1914 144.754 30.0374 144.754 28.7124C144.754 28.6839 144.754 28.6483 144.754 28.6056C144.754 28.5628 144.754 28.5272 144.754 28.4987H153.281C153.281 28.5272 153.281 28.5628 153.281 28.6056C153.281 28.6483 153.281 28.6839 153.281 28.7124C153.281 29.3108 153.537 29.7311 154.05 29.9733C154.563 30.2155 155.254 30.3366 156.123 30.3366C156.436 30.3366 156.8 30.301 157.213 30.2298C157.626 30.1443 157.982 30.0089 158.281 29.8237C158.595 29.6243 158.752 29.3678 158.752 29.0544C158.752 28.5842 158.424 28.2565 157.769 28.0713C157.127 27.8718 156.002 27.6439 154.392 27.3874C153.423 27.2307 152.397 27.0028 151.315 26.7036C150.232 26.3901 149.213 25.9698 148.259 25.4427C147.304 24.9013 146.528 24.2174 145.929 23.3911C145.331 22.5648 145.032 21.5461 145.032 20.3351C145.032 18.6824 145.53 17.3004 146.528 16.1891C147.539 15.0779 148.871 14.2444 150.524 13.6888C152.191 13.1189 154.007 12.8339 155.973 12.8339C157.84 12.8339 159.592 13.1545 161.231 13.7956C162.869 14.4225 164.201 15.3201 165.227 16.4883C166.253 17.6566 166.766 19.0386 166.766 20.6343C166.766 20.6628 166.766 20.6984 166.766 20.7411C166.766 20.7839 166.766 20.8195 166.766 20.848H158.324C158.324 20.8195 158.324 20.7839 158.324 20.7411C158.324 20.6984 158.324 20.6628 158.324 20.6343C158.324 20.2353 158.196 19.9219 157.94 19.694C157.697 19.4518 157.391 19.2737 157.021 19.1597C156.65 19.0457 156.28 18.9887 155.909 18.9887C155.624 18.9887 155.282 19.0243 154.884 19.0956C154.499 19.1526 154.164 19.2665 153.879 19.4375C153.594 19.6085 153.452 19.8578 153.452 20.1855C153.452 20.4704 153.63 20.7126 153.986 20.9121C154.356 21.1115 154.855 21.2825 155.482 21.425C156.123 21.5532 156.835 21.6743 157.619 21.7883C158.431 21.9023 159.371 22.0875 160.44 22.3439C161.508 22.6004 162.549 22.9851 163.56 23.498C164.572 23.9966 165.405 24.6805 166.06 25.5496C166.73 26.4044 167.065 27.5014 167.065 28.8407C167.065 30.2796 166.73 31.4906 166.06 32.4737C165.405 33.4568 164.522 34.2475 163.41 34.8459C162.313 35.4442 161.11 35.8788 159.799 36.1495C158.488 36.4202 157.177 36.5555 155.867 36.5555ZM17.4172 57.6836L19.0627 55.6106V69.8435L18.1651 68.5827H30.261V71.7883H18.1651L19.0627 70.5274V84.8672L17.4172 82.7943H32.6332V85.9999H15.4083V54.4779H32.6332V57.6836H17.4172ZM44.9451 73.9254L44.9024 75.6564L36.0762 63.3041H40.0512L47.4241 73.498L45.2443 73.4338L52.3608 63.3041H56.2716L47.7233 75.1008L47.9584 74.0536L56.4426 85.9999H52.4462L45.1161 75.9556L47.5096 75.4L39.6879 85.9999H35.777L44.9451 73.9254ZM61.036 95.3389V63.3041H64.669V95.3389H61.036ZM72.1274 86.4273C70.375 86.4273 68.7366 85.9999 67.2121 85.145C65.6877 84.276 64.4482 83.0863 63.4936 81.5761C62.5533 80.0659 62.0831 78.342 62.0831 76.4044C62.0831 76.3616 62.0831 76.326 62.0831 76.2975C62.0831 76.269 62.0831 76.2334 62.0831 76.1907L64.6904 76.1266C64.6904 76.1551 64.6904 76.1907 64.6904 76.2334C64.6904 76.2619 64.6904 76.2904 64.6904 76.3189C64.6904 77.5442 65.0109 78.6626 65.6521 79.6741C66.3074 80.6857 67.1623 81.4906 68.2166 82.089C69.2709 82.6874 70.4035 82.9866 71.6145 82.9866C73.6234 82.9866 75.2903 82.3027 76.6153 80.935C77.9545 79.553 78.6242 77.4516 78.6242 74.6306C78.6242 71.7954 77.9617 69.7011 76.6367 68.3476C75.3117 66.9799 73.6376 66.296 71.6145 66.296C70.4035 66.296 69.2709 66.5952 68.2166 67.1936C67.1623 67.7777 66.3074 68.5684 65.6521 69.5657C65.0109 70.563 64.6904 71.6814 64.6904 72.9209L62.0831 72.8355C62.0831 70.8836 62.5533 69.1668 63.4936 67.6851C64.4482 66.2034 65.6877 65.0494 67.2121 64.223C68.7366 63.3824 70.375 62.9621 72.1274 62.9621C73.9653 62.9621 75.6607 63.4181 77.2137 64.3299C78.7666 65.2275 80.0133 66.5453 80.9536 68.2835C81.8939 70.0216 82.364 72.1373 82.364 74.6306C82.364 77.1666 81.901 79.3179 80.9749 81.0846C80.0489 82.837 78.8094 84.1691 77.2564 85.0809C75.7035 85.9785 73.9938 86.4273 72.1274 86.4273ZM89.2171 76.1052V72.8568H106.762L106.121 73.9254C106.121 73.8399 106.121 73.7615 106.121 73.6903C106.121 73.6048 106.121 73.5265 106.121 73.4552C106.121 72.1445 105.844 70.9477 105.288 69.8649C104.747 68.7679 103.934 67.8917 102.852 67.2363C101.769 66.5809 100.43 66.2533 98.8339 66.2533C97.224 66.2533 95.8064 66.5952 94.5811 67.2791C93.3559 67.9629 92.4013 68.9317 91.7174 70.1855C91.0336 71.425 90.6916 72.9067 90.6916 74.6306C90.6916 76.383 91.0193 77.8932 91.6747 79.1612C92.3443 80.4292 93.2918 81.4052 94.517 82.089C95.7423 82.7729 97.1955 83.1148 98.8767 83.1148C100.073 83.1148 101.113 82.9937 101.997 82.7515C102.88 82.4951 103.607 82.1603 104.177 81.7471C104.761 81.3197 105.202 80.8566 105.502 80.358C105.801 79.8593 105.979 79.3607 106.036 78.862H109.669C109.598 79.7738 109.313 80.6785 108.814 81.5761C108.315 82.4737 107.61 83.2929 106.698 84.0338C105.787 84.7604 104.668 85.3445 103.343 85.7862C102.018 86.2278 100.494 86.4487 98.7698 86.4487C96.4903 86.4487 94.4814 85.95 92.7432 84.9527C91.0051 83.9554 89.6373 82.5734 88.64 80.8068C87.657 79.0401 87.1655 77.0099 87.1655 74.7161C87.1655 72.3938 87.6641 70.3564 88.6614 68.604C89.6587 66.8374 91.0336 65.4554 92.786 64.4581C94.5384 63.4608 96.5401 62.9621 98.7912 62.9621C101.085 62.9621 103.072 63.4608 104.754 64.4581C106.435 65.4554 107.731 66.8231 108.643 68.5613C109.555 70.2852 110.011 72.2513 110.011 74.4596C110.011 74.6876 110.004 74.9868 109.989 75.3572C109.975 75.7276 109.954 75.977 109.925 76.1052H89.2171ZM115.673 85.9999V63.3041H119.306V70.271L118.11 69.8435C118.195 69.003 118.409 68.1766 118.751 67.3645C119.093 66.5382 119.563 65.7973 120.161 65.142C120.774 64.4724 121.536 63.9452 122.448 63.5605C123.36 63.1616 124.428 62.9621 125.654 62.9621C126.565 62.9621 127.306 63.0405 127.876 63.1972C128.46 63.3397 128.824 63.4537 128.966 63.5392L128.026 67.1081C127.883 67.0084 127.591 66.8801 127.15 66.7234C126.722 66.5667 126.11 66.4883 125.312 66.4883C124.129 66.4883 123.146 66.702 122.363 67.1295C121.593 67.5569 120.981 68.1268 120.525 68.8391C120.083 69.5372 119.77 70.2995 119.584 71.1258C119.399 71.9521 119.306 72.7713 119.306 73.5834V85.9999H115.673ZM133.084 85.9999V63.3041H136.674V85.9999H133.084ZM134.9 58.0896C134.231 58.0896 133.647 57.9044 133.148 57.534C132.664 57.1493 132.421 56.6293 132.421 55.9739C132.421 55.3328 132.664 54.827 133.148 54.4566C133.647 54.0719 134.231 53.8796 134.9 53.8796C135.57 53.8796 136.147 54.0719 136.632 54.4566C137.116 54.827 137.358 55.3328 137.358 55.9739C137.358 56.6293 137.116 57.1493 136.632 57.534C136.147 57.9044 135.57 58.0896 134.9 58.0896ZM144.606 76.1052V72.8568H162.151L161.51 73.9254C161.51 73.8399 161.51 73.7615 161.51 73.6903C161.51 73.6048 161.51 73.5265 161.51 73.4552C161.51 72.1445 161.232 70.9477 160.677 69.8649C160.135 68.7679 159.323 67.8917 158.24 67.2363C157.158 66.5809 155.818 66.2533 154.223 66.2533C152.613 66.2533 151.195 66.5952 149.97 67.2791C148.745 67.9629 147.79 68.9317 147.106 70.1855C146.422 71.425 146.08 72.9067 146.08 74.6306C146.08 76.383 146.408 77.8932 147.063 79.1612C147.733 80.4292 148.681 81.4052 149.906 82.089C151.131 82.7729 152.584 83.1148 154.265 83.1148C155.462 83.1148 156.502 82.9937 157.386 82.7515C158.269 82.4951 158.996 82.1603 159.565 81.7471C160.15 81.3197 160.591 80.8566 160.89 80.358C161.19 79.8593 161.368 79.3607 161.425 78.862H165.058C164.986 79.7738 164.702 80.6785 164.203 81.5761C163.704 82.4737 162.999 83.2929 162.087 84.0338C161.175 84.7604 160.057 85.3445 158.732 85.7862C157.407 86.2278 155.883 86.4487 154.159 86.4487C151.879 86.4487 149.87 85.95 148.132 84.9527C146.394 83.9554 145.026 82.5734 144.029 80.8068C143.046 79.0401 142.554 77.0099 142.554 74.7161C142.554 72.3938 143.053 70.3564 144.05 68.604C145.048 66.8374 146.422 65.4554 148.175 64.4581C149.927 63.4608 151.929 62.9621 154.18 62.9621C156.474 62.9621 158.461 63.4608 160.142 64.4581C161.824 65.4554 163.12 66.8231 164.032 68.5613C164.944 70.2852 165.4 72.2513 165.4 74.4596C165.4 74.6876 165.393 74.9868 165.378 75.3572C165.364 75.7276 165.343 75.977 165.314 76.1052H144.606ZM187.304 85.9999V75.1221C187.304 74.4668 187.304 73.9325 187.304 73.5193C187.304 73.0919 187.304 72.6859 187.304 72.3012C187.304 71.1187 187.105 70.0858 186.706 69.2024C186.307 68.3191 185.68 67.6352 184.825 67.1508C183.97 66.6664 182.852 66.4242 181.47 66.4242C180.259 66.4242 179.133 66.7377 178.093 67.3645C177.067 67.9772 176.241 68.8106 175.614 69.8649C175.002 70.905 174.695 72.0732 174.695 73.3697L172.622 72.579C172.622 70.7981 173.057 69.1811 173.926 67.7278C174.809 66.2746 175.978 65.1206 177.431 64.2658C178.898 63.3967 180.494 62.9621 182.218 62.9621C183.97 62.9621 185.502 63.297 186.813 63.9666C188.123 64.6362 189.135 65.5979 189.847 66.8516C190.574 68.0911 190.937 69.5871 190.937 71.3395C190.937 71.9664 190.937 72.6502 190.937 73.3911C190.937 74.132 190.937 74.8229 190.937 75.4641V85.9999H187.304ZM171.062 85.9999V63.3041H174.695V85.9999H171.062ZM208.046 86.4273C205.88 86.4273 203.914 85.9571 202.147 85.0168C200.381 84.0623 198.977 82.7017 197.937 80.935C196.912 79.1683 196.399 77.0669 196.399 74.6306C196.399 72.1943 196.912 70.1071 197.937 68.369C198.977 66.6166 200.381 65.2773 202.147 64.3513C203.914 63.4252 205.88 62.9621 208.046 62.9621C209.698 62.9621 211.173 63.2186 212.47 63.7315C213.766 64.2301 214.863 64.8998 215.761 65.7404C216.658 66.5809 217.342 67.507 217.812 68.5186C218.297 69.5159 218.539 70.5132 218.539 71.5105C218.539 71.5247 218.539 71.5461 218.539 71.5746C218.539 71.6031 218.539 71.6316 218.539 71.6601H214.927C214.927 71.5888 214.92 71.5105 214.906 71.425C214.892 71.3253 214.877 71.2255 214.863 71.1258C214.749 70.1712 214.386 69.3378 213.773 68.6254C213.16 67.8988 212.363 67.3289 211.38 66.9157C210.397 66.5026 209.278 66.296 208.024 66.296C206.614 66.296 205.303 66.6023 204.092 67.2149C202.895 67.8133 201.927 68.7323 201.186 69.9718C200.459 71.197 200.096 72.75 200.096 74.6306C200.096 76.497 200.459 78.0571 201.186 79.3108C201.912 80.5646 202.874 81.512 204.071 82.1531C205.282 82.78 206.6 83.0934 208.024 83.0934C209.563 83.0934 210.831 82.8512 211.828 82.3668C212.826 81.8824 213.574 81.2413 214.072 80.4435C214.585 79.6314 214.87 78.7623 214.927 77.8362H218.539C218.539 78.862 218.311 79.8878 217.855 80.9136C217.399 81.9252 216.729 82.8512 215.846 83.6918C214.963 84.5182 213.866 85.1807 212.555 85.6793C211.258 86.178 209.755 86.4273 208.046 86.4273ZM225.372 76.1052V72.8568H242.918L242.277 73.9254C242.277 73.8399 242.277 73.7615 242.277 73.6903C242.277 73.6048 242.277 73.5265 242.277 73.4552C242.277 72.1445 241.999 70.9477 241.443 69.8649C240.902 68.7679 240.09 67.8917 239.007 67.2363C237.924 66.5809 236.585 66.2533 234.989 66.2533C233.379 66.2533 231.962 66.5952 230.737 67.2791C229.511 67.9629 228.557 68.9317 227.873 70.1855C227.189 71.425 226.847 72.9067 226.847 74.6306C226.847 76.383 227.175 77.8932 227.83 79.1612C228.5 80.4292 229.447 81.4052 230.672 82.089C231.898 82.7729 233.351 83.1148 235.032 83.1148C236.229 83.1148 237.269 82.9937 238.152 82.7515C239.036 82.4951 239.762 82.1603 240.332 81.7471C240.916 81.3197 241.358 80.8566 241.657 80.358C241.956 79.8593 242.134 79.3607 242.191 78.862H245.824C245.753 79.7738 245.468 80.6785 244.969 81.5761C244.471 82.4737 243.766 83.2929 242.854 84.0338C241.942 84.7604 240.824 85.3445 239.499 85.7862C238.174 86.2278 236.649 86.4487 234.925 86.4487C232.646 86.4487 230.637 85.95 228.899 84.9527C227.16 83.9554 225.793 82.5734 224.795 80.8068C223.812 79.0401 223.321 77.0099 223.321 74.7161C223.321 72.3938 223.82 70.3564 224.817 68.604C225.814 66.8374 227.189 65.4554 228.941 64.4581C230.694 63.4608 232.696 62.9621 234.947 62.9621C237.24 62.9621 239.228 63.4608 240.909 64.4581C242.59 65.4554 243.887 66.8231 244.799 68.5613C245.71 70.2852 246.166 72.2513 246.166 74.4596C246.166 74.6876 246.159 74.9868 246.145 75.3572C246.131 75.7276 246.109 75.977 246.081 76.1052H225.372Z" fill="white"/>
<line x1="0.85464" y1="96.596" x2="0.85464" y2="2.13702" stroke="white" stroke-width="1.70966" stroke-linecap="round"/>
</svg>
