<svg width="100" height="100" viewBox="0 0 100 100" fill="none" xmlns="http://www.w3.org/2000/svg">
<rect width="100" height="100" rx="10" fill="#DB2C2C"/>
<path d="M52.15 27.8C55.47 27.8 58.15 28.27 60.19 29.21C62.23 30.15 63.72 31.44 64.66 33.08C65.6 34.7 66.07 36.54 66.07 38.6C66.07 40.7001 65.66 42.5201 64.84 44.06C64.02 45.58 62.99 46.77 61.75 47.63C60.53 48.49 59.3 48.98 58.06 49.1C59.3 49.14 60.63 49.49 62.05 50.15C63.49 50.81 64.71 51.88 65.71 53.36C66.73 54.84 67.24 56.83 67.24 59.33C67.24 61.61 66.78 63.7201 65.86 65.6601C64.94 67.5801 63.38 69.13 61.18 70.3101C59 71.4701 55.99 72.05 52.15 72.05H32.8V27.8H52.15ZM44.32 48.14L40.36 44.96H49C50.8 44.96 52.08 44.55 52.84 43.73C53.62 42.89 54.01 41.88 54.01 40.7C54.01 39.88 53.84 39.18 53.5 38.6C53.18 38.02 52.65 37.58 51.91 37.28C51.17 36.96 50.2 36.8 49 36.8H38.86L44.32 31.34V48.14ZM49.78 63.0201C51.58 63.0201 52.88 62.5901 53.68 61.7301C54.5 60.8501 54.91 59.8 54.91 58.58C54.91 57.98 54.81 57.4 54.61 56.84C54.41 56.28 54.1 55.78 53.68 55.34C53.28 54.9 52.75 54.55 52.09 54.29C51.45 54.03 50.68 53.9 49.78 53.9H40.36L44.32 50.72V68.4801L38.86 63.0201H49.78Z" fill="white"/>
</svg>
